<svg xmlns="http://www.w3.org/2000/svg" viewBox="0 0 296 64">
  <rect width="64" height="64" rx="12" fill="#6b2c41"/>
  <path d="M50.605 45.574L50.605 47.250L34.127 47.250L34.127 45.574Q34.664 45.531 35.695 45.445Q36.727 45.359 37.113 45.188Q37.908 44.865 38.209 44.339Q38.510 43.813 38.510 42.996L38.510 32.490L25.490 32.490L25.490 42.760Q25.490 43.490 25.802 44.070Q26.113 44.650 26.865 44.973Q27.273 45.145 28.262 45.338Q29.250 45.531 29.873 45.574L29.873 47.250L13.395 47.250L13.395 45.574Q13.932 45.553 14.974 45.435Q16.016 45.316 16.488 45.145Q17.262 44.865 17.563 44.296Q17.863 43.727 17.863 42.953L17.863 21.383Q17.863 20.631 17.595 20.115Q17.326 19.600 16.488 19.213Q15.865 18.934 14.855 18.708Q13.846 18.482 13.395 18.439L13.395 16.764L29.873 16.764L29.873 18.439Q29.207 18.482 28.283 18.654Q27.359 18.826 26.865 18.977Q26.027 19.256 25.759 19.868Q25.490 20.480 25.490 21.168L25.490 30.277L38.510 30.277L38.510 21.383Q38.510 20.631 38.230 20.115Q37.951 19.600 37.113 19.213Q36.555 18.955 35.620 18.729Q34.686 18.504 34.127 18.439L34.127 16.764L50.605 16.764L50.605 18.439Q49.918 18.482 49.059 18.622Q48.199 18.762 47.512 18.977Q46.695 19.256 46.416 19.857Q46.137 20.459 46.137 21.168L46.137 42.760Q46.137 43.533 46.416 44.070Q46.695 44.607 47.512 44.973Q48.027 45.188 49.005 45.359Q49.982 45.531 50.605 45.574" fill="#faf6f1"/>
  <g transform="translate(78.18 45.16)"><path d="M29.075-1.317L29.075 0L18.146 0L18.146-1.317Q18.592-1.354 19.436-1.429Q20.280-1.503 20.596-1.651Q21.152-1.874 21.412-2.329Q21.672-2.783 21.672-3.507L21.672-12.877L9.296-12.877L9.296-3.711Q9.296-3.062 9.509-2.616Q9.723-2.171 10.354-1.837Q10.669-1.670 11.476-1.503Q12.283-1.336 12.747-1.317L12.747 0L1.818 0L1.818-1.317Q2.264-1.354 3.108-1.429Q3.952-1.503 4.268-1.651Q4.824-1.874 5.084-2.329Q5.344-2.783 5.344-3.507L5.344-22.507Q5.344-23.101 5.103-23.592Q4.861-24.084 4.268-24.362Q3.767-24.604 3.052-24.789Q2.338-24.975 1.818-25.012L1.818-26.329L12.747-26.329L12.747-25.012Q12.228-24.993 11.476-24.845Q10.725-24.696 10.354-24.566Q9.723-24.344 9.509-23.824Q9.296-23.305 9.296-22.692L9.296-14.528L21.672-14.528L21.672-22.507Q21.672-23.101 21.431-23.592Q21.189-24.084 20.596-24.362Q20.095-24.604 19.380-24.789Q18.666-24.975 18.146-25.012L18.146-26.329L29.075-26.329L29.075-25.012Q28.556-24.993 27.804-24.845Q27.053-24.696 26.682-24.566Q26.051-24.344 25.837-23.824Q25.624-23.305 25.624-22.692L25.624-3.711Q25.624-3.062 25.837-2.616Q26.051-2.171 26.682-1.837Q26.997-1.670 27.804-1.503Q28.611-1.336 29.075-1.317M50.135-9.333Q50.135-7.403 49.522-5.539Q48.910-3.674 47.778-2.375Q46.498-0.891 44.810-0.167Q43.121 0.557 41.024 0.557Q39.280 0.557 37.703-0.102Q36.126-0.761 34.901-2.022Q33.695-3.266 32.981-5.056Q32.267-6.847 32.267-9.073Q32.267-13.359 34.762-16.087Q37.258-18.814 41.303-18.814Q45.144-18.814 47.639-16.226Q50.135-13.638 50.135-9.333M46.294-9.296Q46.294-10.687 46.016-12.237Q45.737-13.786 45.181-14.862Q44.587-16.013 43.622-16.708Q42.657-17.404 41.266-17.404Q39.837-17.404 38.826-16.699Q37.814-15.994 37.184-14.770Q36.590-13.638 36.349-12.190Q36.107-10.743 36.107-9.389Q36.107-7.607 36.395-6.095Q36.683-4.583 37.313-3.396Q37.944-2.208 38.900-1.531Q39.855-0.854 41.266-0.854Q43.585-0.854 44.939-3.099Q46.294-5.344 46.294-9.296M72.400-1.540L72.400-0.334L66.444 0.074L66.166-0.186L66.166-2.505L66.055-2.505Q65.609-2.041 65.053-1.512Q64.496-0.983 63.772-0.557Q62.938-0.056 62.158 0.204Q61.379 0.464 59.950 0.464Q57.520 0.464 56.249-1.123Q54.978-2.709 54.978-5.733L54.978-14.491Q54.978-15.159 54.727-15.614Q54.477-16.068 53.994-16.402Q53.660-16.625 53.159-16.727Q52.658-16.829 52.102-16.866L52.102-18.072L58.206-18.518L58.484-18.258L58.484-5.548Q58.484-3.562 59.375-2.561Q60.266-1.559 61.509-1.559Q62.529-1.559 63.327-1.874Q64.125-2.189 64.663-2.616Q65.164-3.006 65.544-3.442Q65.925-3.878 66.129-4.249L66.129-14.621Q66.129-15.233 65.869-15.707Q65.609-16.180 65.146-16.514Q64.812-16.736 64.153-16.783Q63.494-16.829 62.678-16.866L62.678-18.072L69.320-18.518L69.599-18.258L69.599-3.729Q69.599-3.099 69.858-2.653Q70.118-2.208 70.582-1.893Q70.916-1.688 71.380-1.624Q71.844-1.559 72.400-1.540M86.725-8.962Q87.485-8.294 87.894-7.422Q88.302-6.550 88.302-5.288Q88.302-2.746 86.400-1.132Q84.498 0.482 81.474 0.482Q79.878 0.482 78.533-0.093Q77.188-0.668 76.612-1.150L76.241 0.056L74.850 0.056L74.664-6.309L75.944-6.309Q76.093-5.585 76.575-4.620Q77.058-3.655 77.744-2.876Q78.468-2.060 79.479-1.503Q80.490-0.946 81.752-0.946Q83.533-0.946 84.498-1.753Q85.463-2.561 85.463-4.063Q85.463-4.843 85.157-5.409Q84.851-5.975 84.257-6.401Q83.645-6.828 82.754-7.171Q81.863-7.515 80.769-7.849Q79.896-8.108 78.830-8.563Q77.763-9.018 77.002-9.630Q76.186-10.279 75.666-11.226Q75.146-12.172 75.146-13.452Q75.146-15.697 76.816-17.256Q78.486-18.814 81.288-18.814Q82.364-18.814 83.487-18.536Q84.609-18.258 85.314-17.868L85.741-18.833L87.077-18.833L87.355-12.951L86.075-12.951Q85.686-14.918 84.396-16.152Q83.106-17.386 81.251-17.386Q79.729-17.386 78.857-16.625Q77.985-15.864 77.985-14.788Q77.985-13.953 78.273-13.396Q78.561-12.840 79.136-12.450Q79.692-12.079 80.537-11.754Q81.381-11.430 82.624-11.021Q83.849-10.632 84.934-10.112Q86.020-9.593 86.725-8.962M106.021-5.103L107.320-4.305Q106.170-2.115 104.240-0.816Q102.311 0.482 99.806 0.482Q97.598 0.482 95.937-0.297Q94.276-1.076 93.200-2.412Q92.124-3.748 91.595-5.529Q91.066-7.311 91.066-9.296Q91.066-11.077 91.632-12.793Q92.198-14.510 93.293-15.883Q94.351-17.200 95.918-18.007Q97.486-18.814 99.435-18.814Q101.438-18.814 102.867-18.184Q104.296-17.553 105.187-16.458Q106.040-15.419 106.458-14.009Q106.875-12.599 106.875-10.947L106.875-9.723L94.759-9.723Q94.759-7.923 95.102-6.457Q95.445-4.991 96.188-3.878Q96.911-2.802 98.080-2.180Q99.249-1.559 100.863-1.559Q102.515-1.559 103.711-2.329Q104.908-3.099 106.021-5.103M94.759-11.281L103.220-11.281Q103.220-12.320 103.043-13.508Q102.867-14.695 102.478-15.493Q102.051-16.347 101.309-16.885Q100.566-17.423 99.397-17.423Q97.449-17.423 96.160-15.799Q94.870-14.176 94.759-11.281M135.468-12.079Q136.303-11.151 136.702-10.047Q137.101-8.943 137.101-7.478Q137.101-3.989 134.521-1.726Q131.942 0.538 128.120 0.538Q126.357 0.538 124.595-0.009Q122.832-0.557 121.552-1.336L120.754 0.019L119.270 0.019L119.010-8.999L120.513-8.999Q120.977-7.329 121.598-5.984Q122.220-4.639 123.240-3.470Q124.205-2.375 125.495-1.726Q126.784-1.076 128.491-1.076Q129.771-1.076 130.727-1.410Q131.683-1.744 132.276-2.356Q132.870-2.969 133.158-3.794Q133.445-4.620 133.445-5.696Q133.445-7.273 132.555-8.637Q131.664-10.001 129.901-10.706Q128.695-11.188 127.137-11.773Q125.578-12.357 124.446-12.877Q122.220-13.879 120.986-15.502Q119.752-17.126 119.752-19.742Q119.752-21.245 120.364-22.544Q120.977-23.843 122.108-24.863Q123.185-25.828 124.650-26.375Q126.116-26.923 127.712-26.923Q129.530-26.923 130.968-26.366Q132.406-25.810 133.594-25.067L134.354-26.329L135.839-26.329L135.987-17.590L134.484-17.590Q134.076-19.093 133.566-20.466Q133.056-21.839 132.239-22.952Q131.441-24.028 130.291-24.668Q129.141-25.309 127.471-25.309Q125.708-25.309 124.465-24.177Q123.222-23.045 123.222-21.412Q123.222-19.705 124.020-18.583Q124.817-17.460 126.339-16.736Q127.693-16.087 129.001-15.614Q130.310-15.141 131.534-14.603Q132.647-14.120 133.677-13.508Q134.707-12.896 135.468-12.079M151.221-2.152L151.221-0.798Q150.015-0.297 148.938 0.046Q147.862 0.390 146.304 0.390Q144.003 0.390 143.066-0.770Q142.129-1.930 142.129-4.045L142.129-16.439L138.826-16.439L138.826-18.221L142.203-18.221L142.203-23.917L145.580-23.917L145.580-18.221L150.831-18.221L150.831-16.439L145.617-16.439L145.617-6.216Q145.617-5.065 145.701-4.295Q145.784-3.525 146.100-2.950Q146.396-2.412 146.990-2.134Q147.584-1.855 148.586-1.855Q149.050-1.855 149.950-1.939Q150.850-2.022 151.221-2.152M151.647 5.975Q151.647 5.047 152.158 4.462Q152.668 3.878 153.429 3.878Q154.022 3.878 154.449 4.101Q154.876 4.323 155.210 4.676Q155.488 4.954 155.804 5.437Q156.119 5.919 156.305 6.234Q157.232 5.733 158.522 3.618Q159.812 1.503 160.387-0.093Q158.624-4.490 157.195-7.960Q155.767-11.430 154.208-15.141Q153.855-15.994 153.021-16.467Q152.186-16.940 151.351-17.070L151.351-18.295L159.700-18.295L159.700-16.996Q159.144-16.978 158.364-16.764Q157.585-16.551 157.585-16.272Q157.585-16.161 157.668-15.901Q157.752-15.642 157.863-15.363Q158.568-13.526 160.016-10.066Q161.463-6.605 162.261-4.527Q163.096-6.513 163.996-8.637Q164.896-10.762 166.009-13.656Q166.139-14.009 166.380-14.630Q166.621-15.252 166.621-15.697Q166.621-16.180 165.777-16.597Q164.933-17.015 164.172-17.107L164.172-18.295L170.963-18.295L170.963-17.145Q170.406-17.052 169.497-16.504Q168.588-15.957 168.143-14.955Q165.935-9.834 164.218-5.622Q162.502-1.410 161.611 0.575Q160.442 3.173 159.524 4.629Q158.605 6.086 157.733 6.921Q156.880 7.700 156.184 7.969Q155.488 8.238 154.746 8.238Q153.299 8.238 152.473 7.552Q151.647 6.865 151.647 5.975M180.314-1.225L180.314 0L171.390 0L171.390-1.225Q171.816-1.262 172.299-1.308Q172.781-1.354 173.097-1.447Q173.616-1.614 173.876-2.032Q174.136-2.449 174.136-3.117L174.136-24.307Q174.136-24.975 173.848-25.559Q173.561-26.144 173.097-26.478Q172.763-26.700 171.872-26.886Q170.981-27.071 170.443-27.108L170.443-28.296L177.327-28.723L177.587-28.444L177.587-3.340Q177.587-2.690 177.828-2.273Q178.069-1.855 178.607-1.633Q179.016-1.447 179.415-1.354Q179.813-1.262 180.314-1.225M197.570-5.103L198.869-4.305Q197.719-2.115 195.789-0.816Q193.859 0.482 191.354 0.482Q189.146 0.482 187.486-0.297Q185.825-1.076 184.749-2.412Q183.673-3.748 183.144-5.529Q182.615-7.311 182.615-9.296Q182.615-11.077 183.181-12.793Q183.747-14.510 184.842-15.883Q185.899-17.200 187.467-18.007Q189.035-18.814 190.983-18.814Q192.987-18.814 194.416-18.184Q195.845-17.553 196.735-16.458Q197.589-15.419 198.006-14.009Q198.424-12.599 198.424-10.947L198.424-9.723L186.308-9.723Q186.308-7.923 186.651-6.457Q186.994-4.991 187.736-3.878Q188.460-2.802 189.629-2.180Q190.798-1.559 192.412-1.559Q194.063-1.559 195.260-2.329Q196.457-3.099 197.570-5.103M186.308-11.281L194.769-11.281Q194.769-12.320 194.592-13.508Q194.416-14.695 194.026-15.493Q193.600-16.347 192.857-16.885Q192.115-17.423 190.946-17.423Q188.998-17.423 187.708-15.799Q186.419-14.176 186.308-11.281" fill="#1a1a1a"/></g>
</svg>
