<svg xmlns="http://www.w3.org/2000/svg" viewBox="0 0 64 64">
  <path d="M53.988 48.020L53.988 50L34.514 50L34.514 48.020Q35.148 47.969 36.367 47.867Q37.586 47.766 38.043 47.563Q38.982 47.182 39.338 46.560Q39.693 45.938 39.693 44.973L39.693 32.557L24.307 32.557L24.307 44.693Q24.307 45.557 24.675 46.242Q25.043 46.928 25.932 47.309Q26.414 47.512 27.582 47.740Q28.750 47.969 29.486 48.020L29.486 50L10.012 50L10.012 48.020Q10.646 47.994 11.878 47.854Q13.109 47.715 13.668 47.512Q14.582 47.182 14.938 46.509Q15.293 45.836 15.293 44.922L15.293 19.430Q15.293 18.541 14.976 17.932Q14.658 17.322 13.668 16.865Q12.932 16.535 11.738 16.269Q10.545 16.002 10.012 15.951L10.012 13.971L29.486 13.971L29.486 15.951Q28.699 16.002 27.607 16.205Q26.516 16.408 25.932 16.586Q24.941 16.916 24.624 17.640Q24.307 18.363 24.307 19.176L24.307 29.941L39.693 29.941L39.693 19.430Q39.693 18.541 39.363 17.932Q39.033 17.322 38.043 16.865Q37.383 16.561 36.278 16.294Q35.174 16.027 34.514 15.951L34.514 13.971L53.988 13.971L53.988 15.951Q53.176 16.002 52.160 16.167Q51.145 16.332 50.332 16.586Q49.367 16.916 49.037 17.627Q48.707 18.338 48.707 19.176L48.707 44.693Q48.707 45.607 49.037 46.242Q49.367 46.877 50.332 47.309Q50.941 47.563 52.097 47.766Q53.252 47.969 53.988 48.020" fill="#faf6f1"/>
</svg>
